<?xml version="1.0" standalone="no"?><!DOCTYPE svg PUBLIC "-//W3C//DTD SVG 1.1//EN" "http://www.w3.org/Graphics/SVG/1.1/DTD/svg11.dtd"><svg t="1681605492540" class="icon" viewBox="0 0 1024 1024" version="1.1" xmlns="http://www.w3.org/2000/svg" p-id="29141" xmlns:xlink="http://www.w3.org/1999/xlink" width="200" height="200"><path d="M904 1024H120c-66.168 0-120-53.832-120-120V120C0 53.832 53.832 0 120 0h784c66.168 0 120 53.832 120 120v784c0 66.168-53.832 120-120 120zM120 4C56.038 4 4 56.038 4 120v784c0 63.962 52.038 116 116 116h784c63.962 0 116-52.038 116-116V120c0-63.962-52.038-116-116-116H120z" fill="#D8DDE3" p-id="29142"></path><path d="M252 420H192v-98c0-71.682 58.318-130 130-130h98v60h-98c-38.598 0-70 31.402-70 70v98zM420 832h-98c-71.682 0-130-58.318-130-130v-98h60v98c0 38.598 31.402 70 70 70h98v60zM832 420h-60v-98c0-38.598-31.402-70-70-70h-98V192h98c71.682 0 130 58.318 130 130v98zM702 832h-98v-60h98c38.598 0 70-31.402 70-70v-98h60v98c0 71.682-58.318 130-130 130z" fill="#20263B" p-id="29143"></path><path d="M559.162 450.858m-66 0a66 66 0 1 0 132 0 66 66 0 1 0-132 0Z" fill="#FF4B07" p-id="29144"></path><path d="M560.302 516.848l-1.142 0.01c-17.628 0-34.202-6.864-46.668-19.33C500.026 485.062 493.162 468.488 493.162 450.858 493.162 415.08 522.256 385.476 558.018 384.868L559.162 384.858c17.628 0 34.202 6.864 46.668 19.33S625.162 433.228 625.162 450.858c0 35.78-29.094 65.382-64.86 65.99z m-2.25-129.98C523.374 387.458 495.162 416.164 495.162 450.858c0 17.096 6.656 33.168 18.744 45.256C525.994 508.202 542.066 514.858 559.162 514.858l1.108-0.01C594.948 514.26 623.162 485.554 623.162 450.858c0-17.096-6.656-33.168-18.744-45.256C592.328 393.516 576.256 386.858 559.16 386.858l-1.108 0.01z" fill="#FF4B07" p-id="29145"></path><path d="M424.458 519.55m-26 0a26 26 0 1 0 52 0 26 26 0 1 0-52 0Z" fill="#FF4B07" p-id="29146"></path><path d="M424.908 545.546L424.458 545.55C410.122 545.55 398.458 533.886 398.458 519.548 398.458 505.456 409.92 493.794 424.008 493.554L424.458 493.55a25.82 25.82 0 0 1 18.384 7.616A25.828 25.828 0 0 1 450.458 519.552c0 14.094-11.462 25.754-25.55 25.994z m-0.866-49.992C411.038 495.774 400.458 506.54 400.458 519.55c0 13.234 10.766 24 24 24l0.416-0.004C437.878 543.326 448.458 532.562 448.458 519.55c0-6.41-2.496-12.438-7.028-16.97S430.87 495.55 424.458 495.55l-0.416 0.004z" fill="#FF4B07" p-id="29147"></path><path d="M556.294 600.55m-37 0a37 37 0 1 0 74 0 37 37 0 1 0-74 0Z" fill="#FF4B07" p-id="29148"></path><path d="M556.934 637.546L556.292 637.55c-9.882 0-19.174-3.85-26.162-10.838S519.294 610.432 519.294 600.548C519.292 580.492 535.6 563.896 555.648 563.556L556.294 563.55c20.4 0 36.998 16.598 37 37-0.004 20.06-16.314 36.654-36.36 36.996z m-1.252-71.99C536.718 565.878 521.29 581.576 521.294 600.55a34.768 34.768 0 0 0 10.248 24.75A34.764 34.764 0 0 0 556.292 635.55l0.608-0.004C575.864 635.224 591.292 619.524 591.294 600.55 591.292 581.25 575.59 565.55 556.292 565.55l-0.61 0.006z" fill="#FF4B07" p-id="29149"></path></svg>