<?xml version="1.0" standalone="no"?><!DOCTYPE svg PUBLIC "-//W3C//DTD SVG 1.1//EN" "http://www.w3.org/Graphics/SVG/1.1/DTD/svg11.dtd"><svg t="1681369823595" class="icon" viewBox="0 0 1024 1024" version="1.1" xmlns="http://www.w3.org/2000/svg" p-id="25036" xmlns:xlink="http://www.w3.org/1999/xlink" width="200" height="200"><path d="M753.8176 512.8192l64.256 65.3824-36.1984 36.1984-64.256-65.3824a102.4 102.4 0 1 1 36.1984-36.1984zM972.8 819.2v51.2H51.2V153.6h921.6v665.6zM153.6 256v460.8h716.8V256H153.6z m102.4 153.6h51.2v204.8H256V409.6z m102.4-51.2h51.2v256H358.4V358.4z m102.4 102.4h51.2v153.6H460.8V460.8z m204.8 51.2a51.2 51.2 0 1 0 0-102.4 51.2 51.2 0 0 0 0 102.4z m-256 256v51.2h204.8v-51.2H409.6z" fill="#666666" p-id="25037"></path></svg>